HIERARCHY
ROOT Hips
{
    OFFSET 0.000000 0.000000 0.000000
    CHANNELS 6 Xposition Yposition Zposition Zrotation Xrotation Yrotation
    JOINT Spine
    {
        OFFSET -0.000000 14.517291 0.000000
        CHANNELS 3 Zrotation Xrotation Yrotation
        JOINT Spine1
        {
            OFFSET -0.000000 37.558300 0.000000
            CHANNELS 3 Zrotation Xrotation Yrotation
            JOINT Neck
            {
                OFFSET -0.000000 37.404057 3.400369
                CHANNELS 3 Zrotation Xrotation Yrotation
                JOINT Head
                {
                    OFFSET -0.000000 24.785618 -3.540803
                    CHANNELS 3 Zrotation Xrotation Yrotation
                    End Site
                    {
                        OFFSET -0.000000 35.408028 0.000000
                    }
                }
            }
            JOINT LeftShoulder
            {
                OFFSET 6.992933 33.973492 -0.192664
                CHANNELS 3 Zrotation Xrotation Yrotation
                JOINT LeftArm
                {
                    OFFSET 21.527611 0.000000 0.000000
                    CHANNELS 3 Zrotation Xrotation Yrotation
                    JOINT LeftForeArm
                    {
                        OFFSET 56.353916 0.000000 0.000000
                        CHANNELS 3 Zrotation Xrotation Yrotation
                        JOINT LeftHand
                        {
                            OFFSET 47.774071 0.000000 0.000000
                            CHANNELS 3 Zrotation Xrotation Yrotation
                            End Site
                            {
                                OFFSET 26.556021 0.000000 0.000000
                            }
                        }
                    }
                }
            }
            JOINT RightShoulder
            {
                OFFSET -7.065357 33.973492 -0.192664
                CHANNELS 3 Zrotation Xrotation Yrotation
                JOINT RightArm
                {
                    OFFSET -21.527611 0.000000 0.000000
                    CHANNELS 3 Zrotation Xrotation Yrotation
                    JOINT RightForeArm
                    {
                        OFFSET -56.353916 0.000000 0.000000
                        CHANNELS 3 Zrotation Xrotation Yrotation
                        JOINT RightHand
                        {
                            OFFSET -47.774071 0.000000 0.000000
                            CHANNELS 3 Zrotation Xrotation Yrotation
                            End Site
                            {
                                OFFSET -26.556021 0.000000 0.000000
                            }
                        }
                    }
                }
            }
        }
    }
    JOINT LeftUpLeg
    {
        OFFSET 17.704014 0.000000 0.000000
        CHANNELS 3 Zrotation Xrotation Yrotation
        JOINT LeftLeg
        {
            OFFSET -0.000000 -81.181816 0.000000
            CHANNELS 3 Zrotation Xrotation Yrotation
            JOINT LeftFoot
            {
                OFFSET -0.000000 -62.821102 0.000000
                CHANNELS 3 Zrotation Xrotation Yrotation
                JOINT LeftToeBase
                {
                    OFFSET -0.000000 -11.507608 26.556021
                    CHANNELS 3 Zrotation Xrotation Yrotation
                    End Site
                    {
                        OFFSET -0.000000 0.000000 7.081605
                    }
                }
            }
        }
    }
    JOINT RightUpLeg
    {
        OFFSET -17.704014 0.000000 0.000000
        CHANNELS 3 Zrotation Xrotation Yrotation
        JOINT RightLeg
        {
            OFFSET -0.000000 -81.181816 0.000000
            CHANNELS 3 Zrotation Xrotation Yrotation
            JOINT RightFoot
            {
                OFFSET -0.000000 -62.821102 0.000000
                CHANNELS 3 Zrotation Xrotation Yrotation
                JOINT RightToeBase
                {
                    OFFSET -0.000000 -11.507608 26.556021
                    CHANNELS 3 Zrotation Xrotation Yrotation
                    End Site
                    {
                        OFFSET -0.000000 0.000000 7.081605
                    }
                }
            }
        }
    }
}
MOTION
Frames:    8
Frame Time:    0.008333
15.607185    155.114090    -107.136658    0.386931    -9.536239    46.688061    -4.298774    1.783158    -3.150398    -2.165091    3.741979    -1.002060    2.077574    6.906586    -18.582342    18.714931    0.226516    -16.995886    5.387623    8.086417    -21.242439    -20.376490    22.119921    -55.154404    -12.494981    -14.671142    -76.723877    -10.522656    -22.546185    -17.640430    -0.854464    6.028795    -5.116597    31.347538    -12.034780    49.837486    -26.364344    -14.526709    63.892998    -12.365552    -2.010032    37.227055    19.991642    -4.920111    -2.130051    -15.122992    39.248226    -18.233385    7.033433    -27.198002    42.693111    0.000000    0.000000    0.000000    -17.832941    -13.592032    -15.018538    13.937805    32.546860    -16.133402    12.622333    3.765816    -20.640066    0.000000    0.000000    0.000000    
15.609024    155.125427    -107.126411    0.385158    -9.531103    46.671917    -4.312385    1.794024    -3.157223    -2.160704    3.712522    -1.005247    2.077142    6.914659    -18.577374    18.726305    0.240905    -16.991251    5.411761    8.048952    -21.246773    -20.438904    21.926012    -55.399803    -12.210620    -14.969360    -77.732231    -10.562884    -22.779583    -17.618065    -0.845205    6.022855    -5.099907    31.352757    -12.045016    49.812767    -26.345890    -14.519785    63.929470    -12.377801    -2.008266    37.234859    19.989012    -4.902984    -2.124827    -15.122413    39.219559    -18.217064    7.026370    -27.182526    42.684589    0.000000    0.000000    0.000000    -17.824760    -13.589345    -15.040224    13.912625    32.530243    -16.119856    12.623599    3.779985    -20.628492    0.000000    0.000000    0.000000    
15.610039    155.133270    -107.115082    0.372910    -9.523353    46.659702    -4.321199    1.792191    -3.169280    -2.155427    3.695681    -1.009779    2.091642    6.908588    -18.574984    18.713234    0.250642    -16.993488    5.449335    8.043412    -21.191330    -20.486441    21.543907    -55.693855    -12.082007    -14.988365    -78.661552    -10.527388    -22.847946    -17.723904    -0.834967    6.021550    -5.093919    31.346630    -12.045871    49.799801    -26.346859    -14.524484    63.953674    -12.367317    -2.000195    37.231373    19.992834    -4.900770    -2.133314    -15.123787    39.194820    -18.229036    7.037218    -27.172451    42.718761    0.000000    0.000000    0.000000    -17.812759    -13.591125    -15.068162    13.889429    32.513111    -16.090885    12.611201    3.777190    -20.613651    0.000000    0.000000    0.000000    
15.612587    155.141632    -107.102966    0.367344    -9.524014    46.643459    -4.326959    1.808038    -3.168943    -2.152186    3.663967    -1.010588    2.087427    6.908700    -18.576420    18.736359    0.268799    -16.994436    5.472457    7.998762    -21.202629    -20.559849    21.382635    -55.941990    -11.761162    -15.316054    -79.637589    -10.508381    -23.082098    -17.628727    -0.824794    6.028599    -5.098157    31.563509    -12.358952    49.832039    -26.003670    -14.180461    64.227722    -12.513313    -1.837429    37.245544    19.999886    -4.885422    -2.146773    -15.138242    39.169853    -18.202509    7.009280    -27.179409    42.718895    0.000000    0.000000    0.000000    -17.798882    -13.584585    -15.078963    13.876741    32.493565    -16.078371    12.586744    3.789815    -20.599222    0.000000    0.000000    0.000000    
15.615458    155.148712    -107.089722    0.360150    -9.517463    46.633026    -4.329665    1.814610    -3.170535    -2.161361    3.639834    -1.011396    2.099147    6.881959    -18.578259    18.734934    0.314577    -17.005573    5.505138    7.956463    -21.211039    -20.597109    21.283991    -56.200619    -11.342348    -15.753901    -80.606087    -10.677219    -23.307278    -17.558264    -0.810968    6.035334    -5.108377    31.556969    -12.354767    49.829456    -26.016436    -14.194779    64.228165    -12.519197    -1.842773    37.223137    20.001572    -4.877488    -2.172337    -15.154135    39.144367    -18.179409    7.012169    -27.168633    42.722248    0.000000    0.000000    0.000000    -17.789465    -13.584038    -15.082380    13.863271    32.477127    -16.078302    12.597742    3.785784    -20.580742    0.000000    0.000000    0.000000    
15.620351    155.157639    -107.080971    0.352525    -9.507592    46.624245    -4.337058    1.816248    -3.174847    -2.161600    3.620453    -1.013247    2.100753    6.862388    -18.573742    18.743565    0.338971    -17.004137    5.527361    7.905845    -21.227531    -20.660135    21.139328    -56.458065    -10.954490    -16.115578    -81.491028    -10.804420    -23.461510    -17.575575    -0.804777    6.025387    -5.110814    31.572523    -12.371818    49.819527    -25.987148    -14.186482    64.251038    -12.520641    -1.845346    37.209850    19.994387    -4.874722    -2.175360    -15.138268    39.127079    -18.185881    6.994790    -27.168194    42.728863    0.000000    0.000000    0.000000    -17.788120    -13.585939    -15.081779    13.863512    32.459934    -16.066040    12.586794    3.791024    -20.580338    0.000000    0.000000    0.000000    
15.623403    155.166138    -107.069901    0.342858    -9.502657    46.612785    -4.343918    1.820222    -3.179416    -2.152066    3.599236    -1.015580    2.109469    6.853619    -18.577688    18.740116    0.355825    -17.012440    5.545315    7.868076    -21.231506    -20.704126    21.008848    -56.723274    -10.555217    -16.495434    -82.375717    -10.945628    -23.612228    -17.619015    -0.799046    6.023952    -5.109564    31.545240    -12.334705    49.810780    -26.046965    -14.234531    64.210075    -12.474843    -1.851570    37.203674    19.993299    -4.869076    -2.184541    -15.136160    39.105118    -18.156069    6.977634    -27.169584    42.712925    0.000000    0.000000    0.000000    -17.782852    -13.592957    -15.061474    13.872153    32.449326    -16.077288    12.598970    3.800041    -20.585917    0.000000    0.000000    0.000000    
15.630393    155.176956    -107.061592    0.334181    -9.491620    46.605667    -4.350121    1.817600    -3.183632    -2.150025    3.583978    -1.017351    2.123515    6.839347    -18.572502    18.729723    0.363005    -17.011076    5.567312    7.825739    -21.249298    -20.780621    20.849648    -56.972706    -10.183640    -16.834581    -83.243744    -11.026584    -23.752516    -17.585106    -0.795371    6.017261    -5.108798    31.553125    -12.349504    49.802025    -26.024260    -14.232056    64.227676    -12.484373    -1.861429    37.200813    19.984856    -4.865758    -2.205808    -15.135681    39.077553    -18.136610    6.960829    -27.165815    42.719044    0.000000    0.000000    0.000000    -17.783453    -13.598786    -15.063457    13.866179    32.440067    -16.065792    12.611140    3.806184    -20.589207    0.000000    0.000000    0.000000    
